<svg width="60" height="60" viewBox="0 0 60 60" fill="none" xmlns="http://www.w3.org/2000/svg">
<circle cx="30" cy="30" r="30" fill="#03CD69"/>
<path d="M30 16C22.268 16 16 22.268 16 30C16 37.732 22.268 44 30 44C37.732 44 44 37.732 44 30C44 22.268 37.732 16 30 16ZM30 41.5C23.6487 41.5 18.5 36.3513 18.5 30C18.5 23.6487 23.6487 18.5 30 18.5C36.3513 18.5 41.5 23.6487 41.5 30C41.5 36.3513 36.3513 41.5 30 41.5Z" fill="white"/>
<path d="M30 22.5C25.8579 22.5 22.5 25.8579 22.5 30C22.5 34.1421 25.8579 37.5 30 37.5C34.1421 37.5 37.5 34.1421 37.5 30C37.5 25.8579 34.1421 22.5 30 22.5ZM30 35C27.2386 35 25 32.7614 25 30C25 27.2386 27.2386 25 30 25C32.7614 25 35 27.2386 35 30C35 32.7614 32.7614 35 30 35Z" fill="white"/>
<path d="M30 28.3333C29.08 28.3333 28.3333 29.08 28.3333 30C28.3333 30.92 29.08 31.6667 30 31.6667C30.92 31.6667 31.6667 30.92 31.6667 30C31.6667 29.08 30.92 28.3333 30 28.3333Z" fill="white"/>
</svg>
