<svg width="60" height="60" viewBox="0 0 60 60" fill="none" xmlns="http://www.w3.org/2000/svg">
<circle cx="30" cy="30" r="30" fill="#03CD69"/>
<path d="M30 16C22.268 16 16 22.268 16 30C16 37.732 22.268 44 30 44C37.732 44 44 37.732 44 30C44 22.268 37.732 16 30 16ZM30 41.5C23.6487 41.5 18.5 36.3513 18.5 30C18.5 23.6487 23.6487 18.5 30 18.5C36.3513 18.5 41.5 23.6487 41.5 30C41.5 36.3513 36.3513 41.5 30 41.5Z" fill="white"/>
<path d="M30.8333 23.3333H29.1667V31.25L35.4167 35.0083L36.25 33.625L30.8333 30.3333V23.3333Z" fill="white"/>
</svg>